<svg width="189" height="47" viewBox="0 0 189 47" fill="none" xmlns="http://www.w3.org/2000/svg">
<g clip-path="url(#clip0_2073_2657)">
<path d="M0 34.9049C-3.73491e-06 33.3769 0.300941 31.864 0.885652 30.4523C1.47036 29.0407 2.32739 27.7581 3.40779 26.6777C4.4882 25.5973 5.77083 24.7403 7.18245 24.1555C8.59407 23.5708 10.107 23.2699 11.635 23.2699V34.9049C11.635 36.4328 11.334 37.9457 10.7493 39.3574C10.1646 40.769 9.30758 42.0516 8.22717 43.132C7.14676 44.2124 5.86413 45.0695 4.45251 45.6542C3.04089 46.2389 1.52793 46.5398 0 46.5398V34.9049Z" fill="white"/>
<path d="M14.5436 23.27C14.5436 20.1842 15.7694 17.2249 17.9513 15.0429C20.1333 12.8609 23.0927 11.6351 26.1784 11.6351V34.905C26.1784 36.4329 25.8775 37.9459 25.2928 39.3575C24.7081 40.7691 23.8511 42.0517 22.7707 43.1322C21.6903 44.2126 20.4077 45.0696 18.9961 45.6543C17.5845 46.239 16.0715 46.54 14.5436 46.54V23.27Z" fill="white"/>
<path d="M29.0875 11.6349C29.0875 8.54917 30.3134 5.58979 32.4953 3.40783C34.6773 1.22586 37.6367 3.01715e-05 40.7225 0V34.9049C40.7225 36.4328 40.4215 37.9458 39.8368 39.3574C39.2521 40.769 38.3951 42.0517 37.3147 43.1321C36.2343 44.2125 34.9516 45.0695 33.54 45.6542C32.1284 46.2389 30.6154 46.5399 29.0875 46.5399V11.6349Z" fill="white"/>
<path d="M74.6087 17.9756H70.1364V36.8524H74.6087V17.9756Z" fill="white"/>
<path d="M109.733 31.5564C108.503 32.4344 107.033 32.9113 105.523 32.9219C104.564 32.9326 103.624 32.66 102.82 32.1383C102.016 31.6165 101.384 30.8689 101.003 29.9891L100.88 29.7086L115.248 27.0928L115.247 27.0748L115.242 27.0087C115.237 26.9446 115.232 26.8718 115.232 26.7971C115.135 24.2483 114.042 21.8393 112.187 20.0884C110.333 18.3375 107.865 17.3848 105.315 17.4351C102.764 17.4855 100.336 18.535 98.5518 20.3577C96.7677 22.1805 95.7704 24.6308 95.7746 27.1814C95.7708 28.3839 96.0013 29.5757 96.4533 30.6901C97.1797 32.5096 98.4288 34.0732 100.043 35.1836C101.657 36.294 103.564 36.9015 105.523 36.9295C108.206 36.9677 110.798 35.9578 112.749 34.1144C113.746 33.1943 114.57 32.1033 115.182 30.8928L111.503 29.7235C111.36 29.9803 111.189 30.22 110.992 30.4381C110.617 30.8588 110.195 31.2342 109.733 31.5564ZM100.407 25.468C100.858 23.2526 102.741 21.5268 104.884 21.3643C106.956 21.1658 109.093 22.3981 110.076 24.3628L110.221 24.6527L100.225 26.4358L100.407 25.468Z" fill="white"/>
<path d="M72.3726 9.10837C71.8882 9.11215 71.4158 9.2595 71.0152 9.53177C70.6145 9.80404 70.3036 10.189 70.1217 10.638C69.9399 11.087 69.8952 11.5798 69.9934 12.0542C70.0917 12.5285 70.3284 12.9631 70.6736 13.3029C71.0188 13.6428 71.457 13.8726 71.9329 13.9633C72.4087 14.0541 72.9008 14.0017 73.3469 13.8128C73.7929 13.6239 74.173 13.307 74.4389 12.9021C74.7048 12.4972 74.8447 12.0225 74.8409 11.5381C74.8272 10.8914 74.5616 10.2755 74.1006 9.82165C73.6395 9.36782 73.0196 9.11189 72.3726 9.10837Z" fill="white"/>
<path d="M135.402 13.8231C133.617 12.208 131.114 11.3542 128.164 11.3542H118.996V36.8523H123.469V28.1786H128.164C131.116 28.1786 133.619 27.3234 135.402 25.7051C136.218 24.9458 136.869 24.0263 137.314 23.0042C137.76 21.982 137.989 20.8791 137.989 19.7642C137.989 18.6493 137.76 17.5463 137.315 16.5242C136.869 15.502 136.218 14.5825 135.402 13.8231H135.402ZM132.013 22.8012C131.054 23.5706 129.723 23.9773 128.164 23.9773H123.469V15.5168H128.164C129.723 15.5168 131.054 15.9235 132.013 16.6928C132.47 17.0598 132.839 17.5247 133.093 18.0533C133.347 18.5819 133.478 19.1607 133.478 19.747C133.478 20.3333 133.347 20.9121 133.093 21.4408C132.839 21.9694 132.47 22.4343 132.013 22.8012Z" fill="white"/>
<path d="M145.147 8.48883H140.675V36.8523H145.147V8.48883Z" fill="white"/>
<path d="M157.406 17.6658C154.821 17.6658 152.341 18.6929 150.513 20.521C148.685 22.3491 147.658 24.8286 147.658 27.414C147.658 29.9993 148.685 32.4788 150.513 34.3069C152.341 36.1351 154.821 37.1621 157.406 37.1621C159.269 37.1659 161.094 36.6278 162.656 35.6133L163.03 35.3704V36.8523H167.502V17.9755H163.03V19.4573L162.656 19.2144C161.094 18.2 159.269 17.6619 157.406 17.6658ZM157.561 32.9995C154.504 32.9995 152.285 30.6505 152.285 27.414C152.285 24.1773 154.504 21.8283 157.561 21.8283C160.618 21.8283 162.837 24.1773 162.837 27.414C162.837 30.6505 160.618 32.9995 157.561 32.9995Z" fill="white"/>
<path d="M55.9126 11.3542H51.4406V36.8521H66.4836V32.3794H55.9126V11.3542Z" fill="white"/>
<path d="M90.9095 17.9753L86.5169 30.6709L82.1235 17.9753H77.6795L84.2111 36.8522H88.8227L95.3538 17.9753H90.9095Z" fill="white"/>
<path d="M181.266 17.6658C179.372 17.7031 177.57 18.4844 176.248 19.8408L175.835 20.2539V17.9755H171.362V36.8523H175.835V26.4459C175.835 23.7253 177.647 21.7509 180.142 21.7509C180.719 21.7412 181.291 21.8531 181.822 22.0793C182.352 22.3056 182.829 22.641 183.221 23.0639C184.02 23.9912 184.445 25.1833 184.411 26.4071V36.8523H189V26.2909C189 21.2932 185.747 17.6658 181.266 17.6658Z" fill="white"/>
</g>
<defs>
<clipPath id="clip0_2073_2657">
<rect width="188.281" height="46.3629" fill="white" transform="scale(1.00382)"/>
</clipPath>
</defs>
</svg>
